<svg xmlns="http://www.w3.org/2000/svg" width="32" height="32" viewBox="0 0 32 32">
  <defs>
    <linearGradient id="plateGradient" x1="0%" y1="0%" x2="100%" y2="100%">
      <stop offset="0%" stop-color="#FF4B4B" />
      <stop offset="100%" stop-color="#FF8C42" />
    </linearGradient>
    <filter id="glow" x="-30%" y="-30%" width="160%" height="160%">
      <feGaussianBlur stdDeviation="2" result="blur" />
      <feComposite in="SourceGraphic" in2="blur" operator="over" />
    </filter>
    <linearGradient id="steamGradient" x1="0%" y1="0%" x2="100%" y2="100%">
      <stop offset="0%" stop-color="#FFFFFF" stop-opacity="0.9" />
      <stop offset="100%" stop-color="#FFFFFF" stop-opacity="0.3" />
    </linearGradient>
  </defs>

  <!-- Outer glow plate -->
  <circle cx="16" cy="17" r="13" fill="url(#plateGradient)" filter="url(#glow)" />

  <!-- Plate rim highlight -->
  <path d="M16,5 C9.4,5 4,10.4 4,17 C4,23.6 9.4,29 16,29 C22.6,29 28,23.6 28,17 C28,10.4 22.6,5 16,5 Z M16,27 C10.5,27 6,22.5 6,17 C6,11.5 10.5,7 16,7 C21.5,7 26,11.5 26,17 C26,22.5 21.5,27 16,27 Z" fill="#FFFFFF" opacity="0.8" />

  <!-- Food icon (burger) -->
  <g transform="translate(10, 12)">
    <!-- Burger bun top -->
    <path d="M12,1 C15.3,1 18,2.3 18,4 C18,5.7 15.3,7 12,7 C8.7,7 6,5.7 6,4 C6,2.3 8.7,1 12,1 Z" fill="#FFCC00" />

    <!-- Burger patty -->
    <rect x="7" y="7" width="10" height="2" rx="1" fill="#8B4513" />

    <!-- Lettuce -->
    <rect x="6" y="9" width="12" height="1" rx="0.5" fill="#4CD964" />

    <!-- Cheese -->
    <rect x="7" y="10" width="10" height="1" rx="0.5" fill="#FFCC00" />

    <!-- Burger bun bottom -->
    <path d="M12,11 C15.3,11 18,12.3 18,13 C18,13.7 15.3,15 12,15 C8.7,15 6,13.7 6,13 C6,12.3 8.7,11 12,11 Z" fill="#FFCC00" />
  </g>

  <!-- Steam effect -->
  <path d="M14,8 Q16,5 18,8 T22,8" stroke="url(#steamGradient)" stroke-width="1.5" fill="none" opacity="0.7">
    <animate attributeName="d" values="M14,8 Q16,5 18,8 T22,8; M14,7 Q16,3 18,7 T22,7; M14,8 Q16,5 18,8 T22,8" dur="2s" repeatCount="indefinite" />
  </path>
  <path d="M10,9 Q12,6 14,9" stroke="url(#steamGradient)" stroke-width="1.5" fill="none" opacity="0.5">
    <animate attributeName="d" values="M10,9 Q12,6 14,9; M10,8 Q12,4 14,8; M10,9 Q12,6 14,9" dur="1.5s" repeatCount="indefinite" />
  </path>
</svg>
